#N canvas 419 192 450 360 10;
#X obj 206 22 inlet~;
#X obj 206 43 env~ 64;
#X obj 286 22 inlet;
#X obj 206 64 -;
#X obj 206 85 clip 0 100;
#X floatatom 108 118 5 0 0 0 - - -;
#X obj 266 126 *;
#X floatatom 147 118 5 0 0 0 - - -;
#X obj 266 167 * 0.5;
#X obj 266 188 + 100;
#X obj 266 209 dbtopow;
#X obj 266 251 vline~;
#X obj 266 272 *~;
#X obj 336 22 inlet;
#X obj 386 22 inlet;
#X obj 336 64 t b f;
#X msg 336 85 1;
#X obj 336 106 /;
#X floatatom 336 127 5 0 0 0 - - -;
#X obj 336 147 t b f;
#X msg 336 168 1;
#X obj 336 189 -;
#X floatatom 336 210 5 0 0 0 - - -;
#X obj 336 230 * -1;
#X obj 386 43 * 0.5;
#X obj 386 64 + 100;
#X obj 386 85 dbtopow;
#X floatatom 147 139 5 0 0 0 - - -;
#X obj 266 293 *~;
#X obj 266 230 pack f 10;
#X obj 266 314 outlet~;
#X floatatom 108 139 5 0 0 0 - - -;
#X connect 0 0 1 0;
#X connect 0 0 12 1;
#X connect 1 0 3 0;
#X connect 2 0 3 1;
#X connect 3 0 4 0;
#X connect 4 0 5 0;
#X connect 5 0 6 0;
#X connect 6 0 7 0;
#X connect 7 0 8 0;
#X connect 8 0 9 0;
#X connect 9 0 10 0;
#X connect 10 0 29 0;
#X connect 11 0 12 0;
#X connect 12 0 28 0;
#X connect 13 0 31 0;
#X connect 14 0 24 0;
#X connect 15 0 16 0;
#X connect 15 1 17 1;
#X connect 16 0 17 0;
#X connect 17 0 18 0;
#X connect 18 0 19 0;
#X connect 19 0 20 0;
#X connect 19 1 21 1;
#X connect 20 0 21 0;
#X connect 21 0 22 0;
#X connect 22 0 23 0;
#X connect 23 0 6 1;
#X connect 24 0 25 0;
#X connect 25 0 26 0;
#X connect 26 0 27 0;
#X connect 27 0 28 1;
#X connect 28 0 30 0;
#X connect 29 0 11 0;
#X connect 31 0 15 0;
#X coords 0 -1 1 1 85 60 1 100 100;
