#N canvas 1319 383 450 300 10;
#X obj 52 26 inlet~;
#X obj 102 26 inlet;
#X obj 52 173 delwrite~ \$0-dline 10000;
#X obj 102 68 delread4~ \$0-dline 1000;
#X obj 102 89 *~;
#X obj 52 152 +~;
#X obj 101 152 outlet~;
#X obj 102 47 unpack f f;
#X obj 102 131 clip~ -1 1;
#X connect 0 0 5 0;
#X connect 1 0 7 0;
#X connect 3 0 4 0;
#X connect 4 0 8 0;
#X connect 5 0 2 0;
#X connect 7 0 3 0;
#X connect 7 1 4 1;
#X connect 8 0 5 1;
#X connect 8 0 6 0;
