#N canvas 984 0 927 1028 10;
#X msg 207 462 \; pd dsp \$1 \;;
#X obj 207 442 tgl 15 0 empty empty empty 17 7 0 10 -258113 -1 -1 1
1;
#X obj 309 759 *~;
#X obj 37 766 dac~;
#X obj 321 603 vsl 15 128 0 127 0 0 empty empty Master_Volume 0 -9
0 10 -261234 -1 -1 12700 1;
#X obj 434 803 waveform_viewer;
#X obj 244 323 *~;
#X obj 36 204 noise~;
#X obj 127 191 *~;
#X obj 325 224 +~;
#X obj 236 160 *~;
#X obj 109 269 *~;
#X obj 294 323 *~;
#X obj 328 254 *~;
#X obj 358 254 *~;
#X obj 481 32 tgl 15 0 SW SW SW 17 7 0 10 -262144 -1 -1 0 1;
#X obj 480 370 +~;
#X obj 836 143 loadbang;
#X obj 377 424 *~;
#X obj 576 670 +~;
#X obj 377 444 *~;
#X obj 377 464 *~;
#X obj 377 484 *~;
#X obj 377 504 *~;
#X obj 433 625 *~;
#X floatatom 546 587 5 0 0 0 - - -;
#X obj 546 545 loadbang;
#X obj 61 498 notein;
#X obj 141 519 pack f f;
#X obj 141 540 mono_midi;
#X obj 493 773 *~;
#X obj 526 754 /~ 127;
#X obj 15 334 ctlin;
#X obj 66 56 osc~;
#X obj 61 519 moses 44;
#X text 479 711 Velocity Application;
#X text 558 525 Amp tweaking;
#X text 610 492 Cascading Filters;
#X text 429 506 Parallel Filters;
#X text 27 182 noise source;
#X text 137 268 noise modulation and filtering;
#X obj 319 408 +~;
#X obj 523 732 r~ velocity;
#X obj 188 561 s~ velocity;
#X obj 141 582 s~ F0;
#X obj 26 12 r~ F0;
#X obj 61 561 m2formant;
#X obj 61 540 spigot;
#X obj 10 492 vsl 15 128 0 127 0 0 empty empty Note_Interp_Speed 0
-9 0 10 -204800 -1 -1 12700 1;
#X obj 378 19 vsl 15 128 0 127 0 0 empty empty Waveshapper 0 -9 0 10
-261682 -1 -1 12600 1;
#X obj 358 210 r SW;
#X obj 358 231 == 0;
#X text 75 11 oscillator;
#X text 114 65 Pitched ReLU Waveshapper;
#X text 297 364 Combination Matrix;
#X text 56 345 Input Handling;
#X text 209 733 Output Handling;
#X symbolatom 61 582 10 0 0 0 - - -;
#X symbolatom 61 602 10 0 0 0 - - -;
#X floatatom 158 384 5 0 0 0 - - -;
#X obj 158 363 snapshot~;
#X obj 158 342 metro 100;
#X obj 158 321 tgl 15 0 empty empty empty 17 7 0 10 -262144 -1 -1 1
1;
#X obj 141 561 mtof~;
#X obj 91 83 expr~ if($v1>$f2 \, ($v1-$f2)/(1-$f2) \, 0);
#X obj 15 355 swap;
#X obj 15 376 pack f f;
#X obj 10 628 expr $f1/127*2000+50;
#X obj 255 50 expr $f1/127*1.999-1;
#X obj 637 736 compressor;
#X msg 698 714 0;
#X obj 682 695 loadbang;
#X floatatom 601 587 9 0 0 0 - - -;
#X obj 601 545 loadbang;
#X obj 670 630 *~;
#X msg 733 717 1;
#X floatatom 214 530 5 0 0 0 - - -;
#X obj 542 66 signal_interp~;
#X obj 632 66 signal_interp~;
#X obj 542 126 signal_interp~;
#X obj 632 126 signal_interp~;
#X obj 542 186 signal_interp~;
#X obj 632 186 signal_interp~;
#X obj 542 246 signal_interp~;
#X obj 632 246 signal_interp~;
#X obj 542 6 signal_interp~;
#X obj 548 27 r F1;
#X obj 548 47 s~ F1s;
#X obj 632 6 signal_interp~;
#X obj 638 27 r B1;
#X obj 638 47 s~ B1s;
#X obj 548 87 r F2;
#X obj 638 87 r B2;
#X obj 548 107 s~ F2s;
#X obj 638 107 s~ B2s;
#X obj 548 147 r F3;
#X obj 548 167 s~ F3s;
#X obj 638 147 r B3;
#X obj 638 167 s~ B3s;
#X obj 548 207 r F4;
#X obj 638 207 r B4;
#X obj 548 227 s~ F4s;
#X obj 638 227 s~ B4s;
#X obj 548 287 s~ F5s;
#X obj 638 287 s~ B5s;
#X obj 638 267 r B5;
#X obj 548 267 r F5;
#X obj 321 737 / 127;
#X obj 234 583 unpack f f;
#X obj 242 605 t f f;
#X obj 242 626 spigot;
#N canvas 362 158 450 300 RGP 0;
#X obj 134 49 inlet~;
#X obj 134 70 resonator;
#X obj 217 3 loadbang;
#X obj 217 45 sig~;
#X obj 247 45 sig~;
#X obj 134 91 outlet~;
#X msg 247 24 200;
#X msg 217 24 0.01;
#X connect 0 0 1 0;
#X connect 1 0 5 0;
#X connect 2 0 7 0;
#X connect 2 0 6 0;
#X connect 3 0 1 1;
#X connect 4 0 1 2;
#X connect 6 0 4 0;
#X connect 7 0 3 0;
#X restore 117 129 pd RGP;
#N canvas 362 158 450 300 RGZ 0;
#X obj 134 49 inlet~;
#X obj 154 70 resonator;
#X obj 217 45 sig~;
#X obj 247 45 sig~;
#X obj 134 112 outlet~;
#X obj 134 91 -~;
#X obj 217 24 inlet;
#X obj 247 24 inlet;
#X obj 320 50 loadbang;
#X msg 320 71 1500;
#X msg 350 71 6000;
#X connect 0 0 5 0;
#X connect 0 0 1 0;
#X connect 1 0 5 1;
#X connect 2 0 1 1;
#X connect 3 0 1 2;
#X connect 5 0 4 0;
#X connect 6 0 2 0;
#X connect 7 0 3 0;
#X connect 8 0 9 0;
#X connect 8 0 10 0;
#X connect 9 0 2 0;
#X connect 10 0 3 0;
#X restore 126 168 pd RGZ;
#N canvas 362 158 450 300 RGS 0;
#X obj 134 49 inlet~;
#X obj 134 70 resonator;
#X obj 217 45 sig~;
#X obj 247 45 sig~;
#X obj 134 91 outlet~;
#X obj 217 24 inlet;
#X obj 247 24 inlet;
#X obj 321 25 loadbang;
#X msg 351 46 200;
#X msg 321 46 0.01;
#X connect 0 0 1 0;
#X connect 1 0 4 0;
#X connect 2 0 1 1;
#X connect 3 0 1 2;
#X connect 5 0 2 0;
#X connect 6 0 3 0;
#X connect 7 0 9 0;
#X connect 7 0 8 0;
#X connect 8 0 3 0;
#X connect 9 0 2 0;
#X restore 236 140 pd RGS;
#N canvas 836 293 450 300 LPF 0;
#X obj 150 43 inlet~;
#X obj 159 160 resonator;
#X obj 242 93 loadbang;
#X obj 242 135 sig~;
#X obj 272 135 sig~;
#X msg 242 114 0.01;
#X obj 245 52 inlet;
#X obj 289 50 inlet;
#X obj 159 181 outlet~;
#X msg 272 114 1000;
#X connect 0 0 1 0;
#X connect 1 0 8 0;
#X connect 2 0 5 0;
#X connect 2 0 9 0;
#X connect 3 0 1 1;
#X connect 4 0 1 2;
#X connect 5 0 3 0;
#X connect 6 0 3 0;
#X connect 7 0 4 0;
#X connect 9 0 4 0;
#X restore 164 285 pd LPF;
#N canvas 0 50 450 300 R1 0;
#X obj 185 120 resonator;
#X obj 208 67 r~ F1s;
#X obj 238 88 r~ B1s;
#X obj 186 98 inlet~;
#X obj 185 141 outlet~;
#X connect 0 0 4 0;
#X connect 1 0 0 1;
#X connect 2 0 0 2;
#X connect 3 0 0 0;
#X restore 552 470 pd R1;
#N canvas 404 148 450 300 R2 0;
#X obj 185 120 resonator;
#X obj 186 98 inlet~;
#X obj 185 141 outlet~;
#X obj 208 67 r~ F2s;
#X obj 238 88 r~ B2s;
#X connect 0 0 2 0;
#X connect 1 0 0 0;
#X connect 3 0 0 1;
#X connect 4 0 0 2;
#X restore 592 470 pd R2;
#N canvas 0 50 450 300 R3 0;
#X obj 185 120 resonator;
#X obj 186 98 inlet~;
#X obj 185 141 outlet~;
#X obj 208 67 r~ F3s;
#X obj 238 88 r~ B3s;
#X connect 0 0 2 0;
#X connect 1 0 0 0;
#X connect 3 0 0 1;
#X connect 4 0 0 2;
#X restore 632 470 pd R3;
#N canvas 0 50 450 300 R4 0;
#X obj 185 120 resonator;
#X obj 186 98 inlet~;
#X obj 185 141 outlet~;
#X obj 208 67 r~ F4s;
#X obj 238 88 r~ B4s;
#X connect 0 0 2 0;
#X connect 1 0 0 0;
#X connect 3 0 0 1;
#X connect 4 0 0 2;
#X restore 672 470 pd R4;
#N canvas 0 50 450 300 R5 0;
#X obj 185 120 resonator;
#X obj 186 98 inlet~;
#X obj 185 141 outlet~;
#X obj 208 67 r~ F5s;
#X obj 238 88 r~ B5s;
#X connect 0 0 2 0;
#X connect 1 0 0 0;
#X connect 3 0 0 1;
#X connect 4 0 0 2;
#X restore 712 470 pd R5;
#N canvas 0 50 450 300 R1 0;
#X obj 185 120 resonator;
#X obj 208 67 r~ F1s;
#X obj 238 88 r~ B1s;
#X obj 186 98 inlet~;
#X obj 185 141 outlet~;
#X connect 0 0 4 0;
#X connect 1 0 0 1;
#X connect 2 0 0 2;
#X connect 3 0 0 0;
#X restore 433 525 pd R1;
#N canvas 0 50 450 300 R2 0;
#X obj 185 120 resonator;
#X obj 186 98 inlet~;
#X obj 185 141 outlet~;
#X obj 208 67 r~ F2s;
#X obj 238 88 r~ B2s;
#X connect 0 0 2 0;
#X connect 1 0 0 0;
#X connect 3 0 0 1;
#X connect 4 0 0 2;
#X restore 433 545 pd R2;
#N canvas 0 50 450 300 R3 0;
#X obj 185 120 resonator;
#X obj 186 98 inlet~;
#X obj 185 141 outlet~;
#X obj 208 67 r~ F3s;
#X obj 238 88 r~ B3s;
#X connect 0 0 2 0;
#X connect 1 0 0 0;
#X connect 3 0 0 1;
#X connect 4 0 0 2;
#X restore 433 565 pd R3;
#N canvas 0 50 450 300 R4 0;
#X obj 185 120 resonator;
#X obj 186 98 inlet~;
#X obj 185 141 outlet~;
#X obj 208 67 r~ F4s;
#X obj 238 88 r~ B4s;
#X connect 0 0 2 0;
#X connect 1 0 0 0;
#X connect 3 0 0 1;
#X connect 4 0 0 2;
#X restore 433 585 pd R4;
#N canvas 0 50 450 300 R5 0;
#X obj 185 120 resonator;
#X obj 186 98 inlet~;
#X obj 185 141 outlet~;
#X obj 208 67 r~ F5s;
#X obj 238 88 r~ B5s;
#X connect 0 0 2 0;
#X connect 1 0 0 0;
#X connect 3 0 0 1;
#X connect 4 0 0 2;
#X restore 433 605 pd R5;
#X obj 732 66 signal_interp~;
#X obj 732 126 signal_interp~;
#X obj 732 186 signal_interp~;
#X obj 732 246 signal_interp~;
#X obj 732 6 signal_interp~;
#X obj 738 27 r A1;
#X obj 738 47 s~ A1s;
#X obj 738 107 s~ A2s;
#X obj 738 87 r A2;
#X obj 738 147 r A3;
#X obj 738 167 s~ A3s;
#X obj 738 207 r A4;
#X obj 738 227 s~ A4s;
#X obj 738 267 r A5;
#X obj 738 287 s~ A5s;
#X obj 442 66 signal_interp~;
#X obj 442 126 signal_interp~;
#X obj 442 186 signal_interp~;
#X obj 442 246 signal_interp~;
#X obj 448 87 r AV;
#X obj 448 107 s~ AVs;
#X obj 448 147 r AVS;
#X obj 448 167 s~ AVSs;
#X obj 448 207 r AH;
#X obj 448 227 s~ AHs;
#X obj 280 138 r~ AVSs;
#X obj 172 170 r~ AVs;
#X obj 294 302 r~ AHs;
#X obj 244 302 r~ AFs;
#X obj 314 544 loadbang;
#X msg 314 565 127;
#X obj 10 434 loadbang;
#X msg 10 455 2;
#X obj 294 5 loadbang;
#X msg 294 26 126;
#X obj 448 287 s~ AFs;
#X obj 448 267 r AF;
#X obj 432 381 r~ A1s;
#X obj 432 401 r~ A2s;
#X obj 432 421 r~ A3s;
#X obj 432 441 r~ A4s;
#X obj 432 461 r~ A5s;
#X obj 398 47 r AVi;
#X obj 398 107 r AVSi;
#X obj 398 167 r AHi;
#X obj 398 227 r AFi;
#X floatatom 105 372 5 0 0 0 - - -;
#X obj 15 397 route 18 19 16 115;
#X obj 205 420 sel 127;
#X obj 124 238 expr~ if($v2==0 \, 1 \, $v1);
#X obj 191 591 sel 0;
#X obj 626 433 r FBi;
#X obj 377 524 *~;
#X obj 732 306 signal_interp~;
#X obj 738 327 r AB;
#X obj 738 347 s~ ABs;
#X obj 825 10 loadbang;
#X obj 432 481 r~ ABs;
#X obj 12 796 output_effects~;
#X obj 30 731 +~;
#X obj 406 758 lop~ 500;
#N canvas 1060 377 450 300 RNP 0;
#X obj 185 120 resonator;
#X obj 186 98 inlet~;
#X obj 185 141 outlet~;
#X obj 208 67 r~ FNPs;
#X obj 238 88 r~ BNPs;
#X connect 0 0 2 0;
#X connect 1 0 0 0;
#X connect 3 0 0 1;
#X connect 4 0 0 2;
#X restore 502 440 pd RNP;
#N canvas 404 148 450 300 RNZ 0;
#X obj 206 120 resonator;
#X obj 186 98 inlet~;
#X obj 185 162 outlet~;
#X obj 186 140 -~;
#X obj 229 67 r~ FNZs;
#X obj 259 88 r~ BNZs;
#X connect 0 0 3 1;
#X connect 1 0 3 0;
#X connect 1 0 0 0;
#X connect 3 0 2 0;
#X connect 4 0 0 1;
#X connect 5 0 0 2;
#X restore 552 440 pd RNZ;
#X obj 542 306 signal_interp~;
#X obj 542 366 signal_interp~;
#X obj 548 327 r FNP;
#X obj 548 347 s~ FNPs;
#X obj 548 387 r FNZ;
#X obj 548 407 s~ FNZs;
#X obj 632 306 signal_interp~;
#X obj 632 366 signal_interp~;
#X obj 638 327 r BNP;
#X obj 638 347 s~ BNPs;
#X obj 638 387 r BNZ;
#X obj 638 407 s~ BNZs;
#X msg 825 31 10;
#X msg 665 715 80;
#X msg 601 566 5e+006;
#X obj 710 435 * 1;
#X msg 836 164 \; F1 0 \; B1 10000 \; F2 500 \; B2 10000 \; F3 1000
\; B3 10000 \; F4 3300 \; B4 250 \; F5 5000 \; B5 1000 \; FNP 270 \;
BNP 50 \; FNZ 270 \; BNZ 50 \; A1 0 \; A2 0 \; A3 0 \; A4 0 \; A5 0
\; AB 0 \;;
#X msg 546 566 0.1;
#X obj 99 105 +~;
#X obj 146 627 formant2params;
#X text 762 597 There's a README;
#X obj 124 435 loadbang;
#X msg 124 456 symbol Space;
#X msg 124 477 symbol a;
#X obj 223 7 osc~ 12.7;
#X obj 233 17 osc~ 7.1;
#X obj 243 27 osc~ 4.7;
#X floatatom 171 8 5 0 0 0 - - -;
#X obj 40 33 expr~ $v1*(1+$f2/5000*($v3+$v4+$v5));
#X connect 1 0 0 0;
#X connect 2 0 5 0;
#X connect 2 0 183 0;
#X connect 2 0 184 1;
#X connect 4 0 107 0;
#X connect 6 0 41 0;
#X connect 7 0 11 0;
#X connect 8 0 9 0;
#X connect 9 0 13 0;
#X connect 9 0 14 0;
#X connect 10 0 9 1;
#X connect 11 0 114 0;
#X connect 12 0 16 0;
#X connect 13 0 41 1;
#X connect 14 0 16 0;
#X connect 16 0 186 0;
#X connect 17 0 204 0;
#X connect 18 0 120 0;
#X connect 19 0 69 0;
#X connect 20 0 121 0;
#X connect 21 0 122 0;
#X connect 22 0 123 0;
#X connect 23 0 124 0;
#X connect 24 0 19 0;
#X connect 25 0 24 1;
#X connect 26 0 205 0;
#X connect 27 0 34 0;
#X connect 27 0 76 0;
#X connect 27 1 28 1;
#X connect 27 1 47 1;
#X connect 28 0 29 0;
#X connect 28 0 108 0;
#X connect 29 0 63 0;
#X connect 29 1 43 0;
#X connect 29 2 175 0;
#X connect 30 0 185 0;
#X connect 31 0 30 1;
#X connect 32 0 65 0;
#X connect 32 1 65 1;
#X connect 32 1 171 0;
#X connect 33 0 64 0;
#X connect 33 0 174 0;
#X connect 34 0 47 0;
#X connect 34 1 28 0;
#X connect 41 0 18 0;
#X connect 41 0 23 0;
#X connect 41 0 22 0;
#X connect 41 0 21 0;
#X connect 41 0 20 0;
#X connect 41 0 177 0;
#X connect 42 0 31 0;
#X connect 45 0 216 0;
#X connect 46 0 57 0;
#X connect 46 1 58 0;
#X connect 47 0 46 0;
#X connect 48 0 67 0;
#X connect 49 0 68 0;
#X connect 50 0 51 0;
#X connect 50 0 13 1;
#X connect 51 0 14 1;
#X connect 57 0 207 0;
#X connect 58 0 207 1;
#X connect 60 0 59 0;
#X connect 61 0 60 0;
#X connect 62 0 61 0;
#X connect 63 0 44 0;
#X connect 64 0 206 0;
#X connect 65 0 66 0;
#X connect 65 1 66 1;
#X connect 66 0 172 0;
#X connect 67 0 29 1;
#X connect 68 0 64 1;
#X connect 69 0 30 0;
#X connect 70 0 69 2;
#X connect 71 0 70 0;
#X connect 71 0 75 0;
#X connect 71 0 201 0;
#X connect 72 0 74 1;
#X connect 73 0 202 0;
#X connect 74 0 19 1;
#X connect 75 0 69 3;
#X connect 77 0 93 0;
#X connect 78 0 94 0;
#X connect 79 0 96 0;
#X connect 80 0 98 0;
#X connect 81 0 101 0;
#X connect 82 0 102 0;
#X connect 83 0 103 0;
#X connect 84 0 104 0;
#X connect 85 0 87 0;
#X connect 86 0 85 0;
#X connect 88 0 90 0;
#X connect 89 0 88 0;
#X connect 91 0 77 0;
#X connect 92 0 78 0;
#X connect 95 0 79 0;
#X connect 97 0 80 0;
#X connect 99 0 81 0;
#X connect 100 0 82 0;
#X connect 105 0 84 0;
#X connect 106 0 83 0;
#X connect 107 0 2 1;
#X connect 108 1 109 0;
#X connect 109 0 110 0;
#X connect 109 1 110 1;
#X connect 110 0 207 2;
#X connect 111 0 112 0;
#X connect 111 0 113 0;
#X connect 112 0 8 0;
#X connect 113 0 10 0;
#X connect 114 0 6 0;
#X connect 114 0 12 0;
#X connect 115 0 116 0;
#X connect 116 0 117 0;
#X connect 117 0 118 0;
#X connect 118 0 119 0;
#X connect 119 0 74 0;
#X connect 120 0 24 0;
#X connect 121 0 24 0;
#X connect 122 0 24 0;
#X connect 123 0 24 0;
#X connect 124 0 24 0;
#X connect 125 0 132 0;
#X connect 126 0 135 0;
#X connect 127 0 137 0;
#X connect 128 0 139 0;
#X connect 129 0 131 0;
#X connect 130 0 129 0;
#X connect 133 0 125 0;
#X connect 134 0 126 0;
#X connect 136 0 127 0;
#X connect 138 0 128 0;
#X connect 140 0 145 0;
#X connect 141 0 147 0;
#X connect 142 0 149 0;
#X connect 143 0 160 0;
#X connect 144 0 140 0;
#X connect 146 0 141 0;
#X connect 148 0 142 0;
#X connect 150 0 10 1;
#X connect 151 0 8 1;
#X connect 151 0 174 1;
#X connect 152 0 12 1;
#X connect 153 0 6 1;
#X connect 154 0 155 0;
#X connect 155 0 4 0;
#X connect 156 0 157 0;
#X connect 157 0 48 0;
#X connect 158 0 159 0;
#X connect 159 0 49 0;
#X connect 161 0 143 0;
#X connect 162 0 18 1;
#X connect 163 0 20 1;
#X connect 164 0 21 1;
#X connect 165 0 22 1;
#X connect 166 0 23 1;
#X connect 167 0 140 1;
#X connect 168 0 141 1;
#X connect 169 0 142 1;
#X connect 170 0 143 1;
#X connect 172 0 4 0;
#X connect 172 1 48 0;
#X connect 172 2 49 0;
#X connect 172 3 173 0;
#X connect 173 0 1 0;
#X connect 174 0 11 1;
#X connect 175 0 207 3;
#X connect 176 0 203 0;
#X connect 176 0 83 1;
#X connect 176 0 85 1;
#X connect 176 0 81 1;
#X connect 176 0 79 1;
#X connect 176 0 77 1;
#X connect 176 0 189 1;
#X connect 176 0 188 1;
#X connect 177 0 24 0;
#X connect 178 0 180 0;
#X connect 179 0 178 0;
#X connect 181 0 200 0;
#X connect 182 0 177 1;
#X connect 183 0 184 0;
#X connect 184 0 3 0;
#X connect 184 0 3 1;
#X connect 185 0 2 0;
#X connect 186 0 187 0;
#X connect 187 0 115 0;
#X connect 188 0 191 0;
#X connect 189 0 193 0;
#X connect 190 0 188 0;
#X connect 192 0 189 0;
#X connect 194 0 197 0;
#X connect 195 0 199 0;
#X connect 196 0 194 0;
#X connect 198 0 195 0;
#X connect 200 0 129 1;
#X connect 200 0 178 1;
#X connect 200 0 128 1;
#X connect 200 0 127 1;
#X connect 200 0 126 1;
#X connect 200 0 125 1;
#X connect 201 0 69 1;
#X connect 202 0 72 0;
#X connect 203 0 88 1;
#X connect 203 0 84 1;
#X connect 203 0 82 1;
#X connect 203 0 80 1;
#X connect 203 0 78 1;
#X connect 203 0 195 1;
#X connect 203 0 194 1;
#X connect 205 0 25 0;
#X connect 206 0 111 0;
#X connect 209 0 210 0;
#X connect 209 0 211 0;
#X connect 210 0 57 0;
#X connect 211 0 58 0;
#X connect 212 0 216 2;
#X connect 213 0 216 3;
#X connect 214 0 216 4;
#X connect 215 0 216 1;
#X connect 216 0 33 0;
