#N canvas 984 0 927 1028 10;
#X obj 517 42 inlet;
#X obj 517 126 symbol;
#X obj 517 63 symbol;
#X msg 517 84 \$1 \$1;
#X obj 517 105 route a e i o u ai Space;
#X obj 82 113 symbol;
#X obj 82 92 route k s t r m w y n g z d b h p Space;
#X obj 517 168 sel a e i o u ai Space;
#X obj 92 28 inlet;
#X obj 92 49 symbol;
#X msg 92 70 \$1 \$1;
#X obj 637 43 inlet;
#X obj 517 147 symbol_queue;
#X obj 82 134 symbol_queue;
#X obj 687 43 inlet;
#X obj 687 64 b;
#N canvas 1079 511 797 455 cv_env 0;
#X obj 76 17 inlet;
#X obj 601 297 outlet;
#X obj 76 38 t a b;
#X msg 129 36 stop;
#X obj 136 130 t b f;
#X obj 136 151 delay;
#X obj 136 172 f;
#X obj 100 91 swap;
#X obj 76 193 pack f f;
#X msg 76 225 \; AF \$1 \; AFi \$2 \;;
#X msg 136 225 \; AF 0 \; AFi \$1 \;;
#X obj 212 156 pack f f f;
#X obj 227 106 t b b f b;
#X msg 274 137 1;
#X msg 295 157 0;
#X obj 265 178 spigot;
#X obj 198 89 swap;
#X obj 206 134 delay;
#X obj 265 199 unpack f f f;
#X obj 325 243 t b f;
#X obj 325 264 delay;
#X obj 325 285 f;
#X obj 299 220 swap;
#X obj 265 306 pack f f;
#X msg 265 338 \; AH \$1 \; AHi \$2 \;;
#X msg 325 338 \; AH 0 \; AHi \$1 \;;
#X obj 76 59 unpack f f f f f f f f f f;
#X obj 395 110 t b b f b;
#X msg 442 141 1;
#X msg 463 161 0;
#X obj 433 182 spigot;
#X obj 364 87 swap;
#X obj 374 138 delay;
#X obj 433 234 pack f f;
#X obj 380 160 pack f f;
#X obj 433 203 unpack f f;
#X obj 535 271 b;
#X msg 433 266 \; AV \$1 \; AVS \$1 \; AVi \$2 \; AVSi \$2 \;;
#X connect 0 0 2 0;
#X connect 2 0 26 0;
#X connect 2 1 3 0;
#X connect 3 0 17 0;
#X connect 3 0 32 0;
#X connect 3 0 20 0;
#X connect 3 0 5 0;
#X connect 4 0 5 0;
#X connect 4 1 6 1;
#X connect 5 0 6 0;
#X connect 6 0 10 0;
#X connect 7 0 4 0;
#X connect 7 1 8 1;
#X connect 7 1 5 1;
#X connect 8 0 9 0;
#X connect 11 0 15 0;
#X connect 12 0 17 0;
#X connect 12 1 13 0;
#X connect 12 2 11 0;
#X connect 12 3 14 0;
#X connect 13 0 15 1;
#X connect 14 0 15 1;
#X connect 15 0 18 0;
#X connect 16 0 12 0;
#X connect 16 1 17 1;
#X connect 17 0 11 0;
#X connect 18 0 23 0;
#X connect 18 1 22 0;
#X connect 18 2 22 1;
#X connect 19 0 20 0;
#X connect 19 1 21 1;
#X connect 20 0 21 0;
#X connect 21 0 25 0;
#X connect 22 0 19 0;
#X connect 22 1 23 1;
#X connect 22 1 20 1;
#X connect 23 0 24 0;
#X connect 26 0 8 0;
#X connect 26 1 7 0;
#X connect 26 2 7 1;
#X connect 26 3 16 0;
#X connect 26 4 16 1;
#X connect 26 5 11 1;
#X connect 26 6 11 2;
#X connect 26 7 31 0;
#X connect 26 8 31 1;
#X connect 26 9 34 1;
#X connect 27 0 32 0;
#X connect 27 1 28 0;
#X connect 27 2 34 0;
#X connect 27 3 29 0;
#X connect 28 0 30 1;
#X connect 29 0 30 1;
#X connect 30 0 35 0;
#X connect 31 0 27 0;
#X connect 31 1 32 1;
#X connect 32 0 34 0;
#X connect 33 0 37 0;
#X connect 33 0 36 0;
#X connect 34 0 30 0;
#X connect 35 0 33 0;
#X connect 35 1 33 1;
#X connect 36 0 1 0;
#X restore 687 107 pd cv_env;
#X msg 189 198 \; F1 290 \; F2 610 \; F3 2150 \; B1 50 \; B2 80 \;
B3 60 \;;
#X msg 124 198 \; F1 310 \; F2 1060 \; F3 2500 \; B1 70 \; B2 100 \;
B3 200 \;;
#X msg 256 198 \; F1 260 \; F2 2070 \; F3 3020 \; B1 40 \; B2 250 \;
B3 500 \;;
#X text 782 213 vowels;
#X text 224 882 Fricitives s \, z;
#X text 373 168 pure vowels;
#X text 297 441 Plosives k \, t \, g \, d \, b \, p;
#X text 297 292 Sonorants r \, w \, y \, h;
#X text 499 6 Magic CV Envelope Subpatch;
#X msg 547 660 \; FNZ 450 \; F1 480 \; F2 1270 \; F3 2130 \; B1 40
\; B2 200 \; B3 200 \;;
#X msg 617 660 \; FNZ 450 \; F1 480 \; F2 1340 \; F3 2470 \; B1 40
\; B2 300 \; B3 300 \;;
#X text 691 770 Nasal m \, n;
#X obj 637 64 t b b;
#X msg 587 238 \; FNZ 270 \; F1 850 \; F2 1220 \; F3 2810 \; B1 80
\; B2 70 \; B3 70 \;;
#X msg 659 239 \; FNZ 270 \; F1 600 \; F2 2350 \; F3 3000 \; B1 60
\; B2 90 \; B3 200 \;;
#X msg 730 239 \; FNZ 270 \; F1 300 \; F2 2800 \; F3 3300 \; B1 45
\; B2 200 \; B3 400 \;;
#X msg 659 340 \; FNZ 270 \; F1 470 \; F2 1160 \; F3 2680 \; B1 80
\; B2 100 \; B3 80 \;;
#X msg 729 350 \; FNZ 270 \; F1 430 \; F2 2480 \; F3 3070 \; B1 50
\; B2 100 \; B3 140 \;;
#X msg 687 85 0 0 0 0 0.001 20 500 0 0 250;
#X msg 808 245 A2 0 \; A3 0 \; A4 0 \; A5 0 \; AB 0 \;;
#X obj 358 22 loadbang;
#X msg 358 43 \; SW 0 \;;
#N canvas 629 293 797 674 plosive_env 0;
#X obj 138 7 inlet;
#X obj 486 452 outlet;
#X obj 138 28 t a b;
#X msg 490 20 stop;
#X obj 283 226 pack f f f;
#X obj 298 176 t b b f b;
#X msg 345 207 1;
#X msg 366 227 0;
#X obj 336 248 spigot;
#X obj 269 159 swap;
#X obj 277 204 delay;
#X obj 336 269 unpack f f f;
#X obj 396 313 t b f;
#X obj 396 334 delay;
#X obj 396 355 f;
#X obj 370 290 swap;
#X obj 336 376 pack f f;
#X msg 336 408 \; AH \$1 \; AHi \$2 \;;
#X msg 396 408 \; AH 0 \; AHi \$1 \;;
#X obj 466 180 t b b f b;
#X msg 513 211 1;
#X msg 534 231 0;
#X obj 504 252 spigot;
#X obj 435 157 swap;
#X obj 445 208 delay;
#X obj 504 304 pack f f;
#X obj 451 230 pack f f;
#X obj 504 273 unpack f f;
#X obj 486 415 b;
#X msg 504 336 \; AV \$1 \; AVS \$1 \; AVi \$2 \; AVSi \$2 \;;
#X obj 591 330 t b f;
#X obj 591 372 f;
#X obj 590 352 delay;
#X msg 590 405 \; AV \$1 \; AVS \$1 \;;
#X obj 590 305 * 0.8;
#X obj 146 222 pack f f f;
#X obj 161 172 t b b f b;
#X msg 208 203 1;
#X msg 229 223 0;
#X obj 199 244 spigot;
#X obj 132 155 swap;
#X obj 140 200 delay;
#X obj 199 265 unpack f f f;
#X obj 259 309 t b f;
#X obj 259 330 delay;
#X obj 259 351 f;
#X obj 233 286 swap;
#X obj 199 372 pack f f;
#X msg 199 404 \; AF \$1 \; AFi \$2 \;;
#X msg 259 404 \; AF 0 \; AFi \$1 \;;
#X msg 59 157 \; AV 0 \; AVi \$1 \; AVS 0 \; AVSi \$1 \;;
#X obj 138 49 unpack f f f f f f f f f f f f;
#X msg 97 486 \; FBi 0 \;;
#X msg 255 491 \; FBi 150 \;;
#X connect 0 0 2 0;
#X connect 2 0 51 0;
#X connect 2 1 3 0;
#X connect 3 0 10 0;
#X connect 3 0 24 0;
#X connect 3 0 13 0;
#X connect 3 0 32 0;
#X connect 3 0 41 0;
#X connect 3 0 44 0;
#X connect 4 0 8 0;
#X connect 5 0 10 0;
#X connect 5 1 6 0;
#X connect 5 2 4 0;
#X connect 5 3 7 0;
#X connect 6 0 8 1;
#X connect 7 0 8 1;
#X connect 8 0 11 0;
#X connect 9 0 5 0;
#X connect 9 1 10 1;
#X connect 10 0 4 0;
#X connect 11 0 16 0;
#X connect 11 1 15 0;
#X connect 11 2 15 1;
#X connect 12 0 13 0;
#X connect 12 1 14 1;
#X connect 13 0 14 0;
#X connect 14 0 18 0;
#X connect 15 0 12 0;
#X connect 15 1 16 1;
#X connect 15 1 13 1;
#X connect 16 0 17 0;
#X connect 19 0 24 0;
#X connect 19 1 20 0;
#X connect 19 2 26 0;
#X connect 19 3 21 0;
#X connect 20 0 22 1;
#X connect 21 0 22 1;
#X connect 22 0 27 0;
#X connect 23 0 19 0;
#X connect 23 1 24 1;
#X connect 24 0 26 0;
#X connect 25 0 28 0;
#X connect 25 0 29 0;
#X connect 26 0 22 0;
#X connect 27 0 25 0;
#X connect 27 0 34 0;
#X connect 27 1 25 1;
#X connect 27 1 32 1;
#X connect 28 0 1 0;
#X connect 30 0 32 0;
#X connect 30 1 31 1;
#X connect 31 0 33 0;
#X connect 32 0 31 0;
#X connect 34 0 30 0;
#X connect 35 0 39 0;
#X connect 36 0 41 0;
#X connect 36 1 37 0;
#X connect 36 2 35 0;
#X connect 36 3 38 0;
#X connect 37 0 39 1;
#X connect 38 0 39 1;
#X connect 39 0 42 0;
#X connect 40 0 36 0;
#X connect 40 1 41 1;
#X connect 41 0 35 0;
#X connect 41 0 52 0;
#X connect 42 0 47 0;
#X connect 42 1 46 0;
#X connect 42 2 46 1;
#X connect 43 0 44 0;
#X connect 43 1 45 1;
#X connect 44 0 45 0;
#X connect 44 0 53 0;
#X connect 45 0 49 0;
#X connect 46 0 43 0;
#X connect 46 1 47 1;
#X connect 46 1 44 1;
#X connect 47 0 48 0;
#X connect 51 0 50 0;
#X connect 51 1 40 0;
#X connect 51 2 40 1;
#X connect 51 3 35 1;
#X connect 51 4 35 2;
#X connect 51 5 9 0;
#X connect 51 6 9 1;
#X connect 51 7 4 1;
#X connect 51 8 4 2;
#X connect 51 9 23 0;
#X connect 51 10 23 1;
#X connect 51 11 26 1;
#X restore 100 666 pd plosive_env;
#N canvas 590 434 467 540 sonor_env 0;
#X obj 57 11 inlet;
#X obj 252 454 outlet;
#X obj 57 32 t a b;
#X msg 242 28 stop;
#X obj 49 228 pack f f f;
#X obj 64 178 t b b f b;
#X msg 111 209 1;
#X msg 132 229 0;
#X obj 102 250 spigot;
#X obj 35 161 swap;
#X obj 43 206 delay;
#X obj 102 271 unpack f f f;
#X obj 162 315 t b f;
#X obj 162 336 delay;
#X obj 162 357 f;
#X obj 136 292 swap;
#X obj 102 378 pack f f;
#X msg 162 410 \; AH 0 \; AHi \$1 \;;
#X obj 232 182 t b b f b;
#X msg 279 213 1;
#X msg 300 233 0;
#X obj 270 254 spigot;
#X obj 201 159 swap;
#X obj 211 210 delay;
#X obj 270 306 pack f f;
#X obj 217 232 pack f f;
#X obj 270 275 unpack f f;
#X obj 252 417 b;
#X msg 270 338 \; AV \$1 \; AVS \$1 \; AVi \$2 \; AVSi \$2 \;;
#X obj 357 332 t b f;
#X obj 357 374 f;
#X obj 356 354 delay;
#X msg 356 407 \; AV \$1 \; AVS \$1 \;;
#X obj 356 307 * 0.8;
#X obj 57 53 unpack f f f f f f f;
#X msg 301 56 \; FBi 200 \;;
#X msg 102 410 \; AH \$1 \; AHi \$2 \; AV 0 \; AVS 0 \; AVi \$2 \;
AVSi \$2 \;;
#X connect 0 0 2 0;
#X connect 2 0 34 0;
#X connect 2 1 3 0;
#X connect 3 0 10 0;
#X connect 3 0 23 0;
#X connect 3 0 13 0;
#X connect 3 0 31 0;
#X connect 4 0 8 0;
#X connect 5 0 10 0;
#X connect 5 1 6 0;
#X connect 5 2 4 0;
#X connect 5 3 7 0;
#X connect 6 0 8 1;
#X connect 7 0 8 1;
#X connect 8 0 11 0;
#X connect 9 0 5 0;
#X connect 9 1 10 1;
#X connect 10 0 4 0;
#X connect 11 0 16 0;
#X connect 11 1 15 0;
#X connect 11 2 15 1;
#X connect 12 0 13 0;
#X connect 12 1 14 1;
#X connect 13 0 14 0;
#X connect 14 0 17 0;
#X connect 15 0 12 0;
#X connect 15 1 16 1;
#X connect 15 1 13 1;
#X connect 16 0 36 0;
#X connect 18 0 23 0;
#X connect 18 1 19 0;
#X connect 18 2 25 0;
#X connect 18 3 20 0;
#X connect 19 0 21 1;
#X connect 20 0 21 1;
#X connect 21 0 26 0;
#X connect 22 0 18 0;
#X connect 22 1 23 1;
#X connect 23 0 25 0;
#X connect 24 0 27 0;
#X connect 24 0 28 0;
#X connect 25 0 21 0;
#X connect 26 0 24 0;
#X connect 26 0 33 0;
#X connect 26 1 24 1;
#X connect 26 1 31 1;
#X connect 27 0 1 0;
#X connect 29 0 31 0;
#X connect 29 1 30 1;
#X connect 30 0 32 0;
#X connect 31 0 30 0;
#X connect 33 0 29 0;
#X connect 34 0 9 0;
#X connect 34 1 9 1;
#X connect 34 2 4 1;
#X connect 34 3 4 2;
#X connect 34 4 22 0;
#X connect 34 5 22 1;
#X connect 34 6 25 1;
#X connect 34 6 35 0;
#X restore 121 365 pd sonor_env;
#X msg 124 289 0 0.05 25 100 100 1 100;
#X msg 201 329 0 0.05 25 250 100 1 150;
#X obj 100 425 sel k t g d b p;
#X obj 130 167 sel r w y h Space;
#N canvas 535 404 797 674 fric_env 0;
#X obj 138 7 inlet;
#X obj 378 450 outlet;
#X obj 138 28 t a b;
#X msg 490 20 stop;
#X obj 175 224 pack f f f;
#X obj 190 174 t b b f b;
#X msg 237 205 1;
#X msg 258 225 0;
#X obj 228 246 spigot;
#X obj 161 157 swap;
#X obj 169 202 delay;
#X obj 228 267 unpack f f f;
#X obj 288 311 t b f;
#X obj 288 332 delay;
#X obj 288 353 f;
#X obj 262 288 swap;
#X obj 228 374 pack f f;
#X msg 228 406 \; AH \$1 \; AHi \$2 \;;
#X msg 288 406 \; AH 0 \; AHi \$1 \;;
#X obj 358 178 t b b f b;
#X msg 405 209 1;
#X msg 426 229 0;
#X obj 396 250 spigot;
#X obj 327 155 swap;
#X obj 337 206 delay;
#X obj 396 302 pack f f;
#X obj 343 228 pack f f;
#X obj 396 271 unpack f f;
#X obj 378 413 b;
#X msg 396 334 \; AV \$1 \; AVS \$1 \; AVi \$2 \; AVSi \$2 \;;
#X obj 483 328 t b f;
#X obj 483 370 f;
#X obj 482 350 delay;
#X msg 482 403 \; AV \$1 \; AVS \$1 \;;
#X obj 482 303 * 0.8;
#X msg 59 157 \; AV 0 \; AVi \$1 \; AVS 0 \; AVSi \$1 \;;
#X obj 138 49 unpack f f f f f f f f;
#X msg 124 110 \; FBi 25 \;;
#X connect 0 0 2 0;
#X connect 2 0 36 0;
#X connect 2 1 3 0;
#X connect 3 0 10 0;
#X connect 3 0 24 0;
#X connect 3 0 13 0;
#X connect 3 0 32 0;
#X connect 4 0 8 0;
#X connect 5 0 10 0;
#X connect 5 1 6 0;
#X connect 5 2 4 0;
#X connect 5 3 7 0;
#X connect 6 0 8 1;
#X connect 7 0 8 1;
#X connect 8 0 11 0;
#X connect 9 0 5 0;
#X connect 9 1 10 1;
#X connect 10 0 4 0;
#X connect 11 0 16 0;
#X connect 11 1 15 0;
#X connect 11 2 15 1;
#X connect 12 0 13 0;
#X connect 12 1 14 1;
#X connect 13 0 14 0;
#X connect 14 0 18 0;
#X connect 15 0 12 0;
#X connect 15 1 16 1;
#X connect 15 1 13 1;
#X connect 16 0 17 0;
#X connect 19 0 24 0;
#X connect 19 1 20 0;
#X connect 19 2 26 0;
#X connect 19 3 21 0;
#X connect 20 0 22 1;
#X connect 21 0 22 1;
#X connect 22 0 27 0;
#X connect 23 0 19 0;
#X connect 23 1 24 1;
#X connect 24 0 26 0;
#X connect 25 0 28 0;
#X connect 25 0 29 0;
#X connect 26 0 22 0;
#X connect 27 0 25 0;
#X connect 27 0 34 0;
#X connect 27 1 25 1;
#X connect 27 1 32 1;
#X connect 28 0 1 0;
#X connect 30 0 32 0;
#X connect 30 1 31 1;
#X connect 31 0 33 0;
#X connect 32 0 31 0;
#X connect 34 0 30 0;
#X connect 36 0 35 0;
#X connect 36 0 37 0;
#X connect 36 1 9 0;
#X connect 36 2 9 1;
#X connect 36 3 4 1;
#X connect 36 4 4 2;
#X connect 36 5 23 0;
#X connect 36 6 23 1;
#X connect 36 7 26 1;
#X restore 71 933 pd fric_env;
#X obj 74 726 sel s z;
#N canvas 535 404 797 674 nasal_env 0;
#X obj 138 7 inlet;
#X obj 268 430 outlet;
#X obj 138 28 t a b;
#X msg 312 25 stop;
#X obj 248 158 t b b f b;
#X msg 295 189 1;
#X msg 316 209 0;
#X obj 286 230 spigot;
#X obj 217 135 swap;
#X obj 227 186 delay;
#X obj 286 282 pack f f;
#X obj 233 208 pack f f;
#X obj 286 251 unpack f f;
#X obj 268 393 b;
#X msg 286 314 \; AV \$1 \; AVS \$1 \; AVi \$2 \; AVSi \$2 \;;
#X obj 373 308 t b f;
#X obj 373 350 f;
#X obj 372 330 delay;
#X msg 372 383 \; AV \$1 \; AVS \$1 \;;
#X obj 372 283 * 0.8;
#X msg 145 239 \; AV \$1 \; AVS \$1 \; AVi \$2 \; AVSi \$2 \;;
#X msg 76 363 \; FBi 50 \;;
#X obj 145 208 pack f f;
#X obj 138 49 unpack f f f f f;
#X connect 0 0 2 0;
#X connect 2 0 23 0;
#X connect 2 1 3 0;
#X connect 3 0 9 0;
#X connect 3 0 17 0;
#X connect 4 0 9 0;
#X connect 4 1 5 0;
#X connect 4 2 11 0;
#X connect 4 3 6 0;
#X connect 5 0 7 1;
#X connect 6 0 7 1;
#X connect 7 0 12 0;
#X connect 8 0 4 0;
#X connect 8 1 9 1;
#X connect 9 0 11 0;
#X connect 10 0 13 0;
#X connect 10 0 14 0;
#X connect 11 0 7 0;
#X connect 12 0 10 0;
#X connect 12 0 19 0;
#X connect 12 1 10 1;
#X connect 12 1 17 1;
#X connect 13 0 1 0;
#X connect 15 0 17 0;
#X connect 15 1 16 1;
#X connect 16 0 18 0;
#X connect 17 0 16 0;
#X connect 19 0 15 0;
#X connect 22 0 20 0;
#X connect 23 0 22 0;
#X connect 23 0 21 0;
#X connect 23 1 22 1;
#X connect 23 2 8 0;
#X connect 23 3 8 1;
#X connect 23 4 11 1;
#X restore 546 795 pd nasal_env;
#X obj 547 629 sel m n;
#X obj 356 750 bng 15 250 50 0 empty empty empty 17 7 0 10 -262144
-1 -1;
#X obj 287 769 bng 15 250 50 0 empty empty empty 17 7 0 10 -262144
-1 -1;
#X obj 404 752 bng 15 250 50 0 empty empty empty 17 7 0 10 -262144
-1 -1;
#X obj 465 804 bng 15 250 50 0 empty empty empty 17 7 0 10 -262144
-1 -1;
#X obj 607 64 bng 15 250 50 0 empty empty empty 17 7 0 10 -262144 -1
-1;
#X obj 291 141 bng 15 250 50 0 empty empty empty 17 7 0 10 -262144
-1 -1;
#N canvas 590 434 467 540 sonor_env 0;
#X obj 57 11 inlet;
#X obj 109 450 outlet;
#X obj 57 32 t a b;
#X msg 242 28 stop;
#X obj 89 178 t b b f b;
#X msg 136 209 1;
#X msg 157 229 0;
#X obj 127 250 spigot;
#X obj 58 155 swap;
#X obj 68 206 delay;
#X obj 127 302 pack f f;
#X obj 74 228 pack f f;
#X obj 127 271 unpack f f;
#X obj 109 413 b;
#X msg 127 334 \; AV \$1 \; AVS \$1 \; AVi \$2 \; AVSi \$2 \;;
#X obj 214 328 t b f;
#X obj 214 370 f;
#X obj 213 350 delay;
#X msg 213 403 \; AV \$1 \; AVS \$1 \;;
#X obj 213 303 * 0.8;
#X obj 57 53 unpack f f f;
#X msg 157 91 \; FBi 500 \;;
#X connect 0 0 2 0;
#X connect 2 0 20 0;
#X connect 2 1 3 0;
#X connect 3 0 9 0;
#X connect 3 0 17 0;
#X connect 4 0 9 0;
#X connect 4 1 5 0;
#X connect 4 2 11 0;
#X connect 4 3 6 0;
#X connect 5 0 7 1;
#X connect 6 0 7 1;
#X connect 7 0 12 0;
#X connect 8 0 4 0;
#X connect 8 1 9 1;
#X connect 9 0 11 0;
#X connect 10 0 13 0;
#X connect 10 0 14 0;
#X connect 11 0 7 0;
#X connect 12 0 10 0;
#X connect 12 0 19 0;
#X connect 12 1 10 1;
#X connect 12 1 17 1;
#X connect 13 0 1 0;
#X connect 15 0 17 0;
#X connect 15 1 16 1;
#X connect 16 0 18 0;
#X connect 17 0 16 0;
#X connect 19 0 15 0;
#X connect 20 0 8 0;
#X connect 20 1 8 1;
#X connect 20 2 11 1;
#X connect 20 2 21 0;
#X restore 371 158 pd sonor_env;
#X msg 370 132 0 1 200;
#X msg 71 900 25 0 0.02 150 150 150 1 50;
#X msg 97 617 15 50 0.01 15 35 50 0.01 25 300 75 1 100;
#X msg 131 641 15 50 0.01 5 25 0 0.001 25 100 100 1 100;
#X msg 546 770 0.01 50 150 1 150;
#X msg 161 309 0 0.001 25 50 100 1 100;
#X msg 589 350 \; FNZ 270 \; F1 540 \; F2 1100 \; F3 2300 \; B1 80
\; B2 70 \; B3 70 \;;
#X msg 105 466 \; F1 300 \; F2 1990 \; F3 2850 \; B1 250 \; B2 160
\; B3 330 \; A2 0 \; A3 0.5 \; A4 0.125 \; A5 0.15 \; AB 0.15 \;;
#X msg 175 466 \; F1 400 \; F2 1600 \; F3 2600 \; B1 300 \; B2 120
\; B3 250 \; A2 0 \; A3 0.01 \; A4 0.2 \; A5 0.75 \; AB 1 \;;
#X msg 245 466 \; F1 200 \; F2 1990 \; F3 2850 \; B1 60 \; B2 150 \;
B3 280 \; A2 0 \; A3 0.5 \; A4 0.125 \; A5 0.15 \; AB 0.15 \;;
#X msg 315 466 \; F1 200 \; F2 1600 \; F3 2600 \; B1 60 \; B2 100 \;
B3 170 \; A2 0 \; A3 0.25 \; A4 1 \; A5 1.2 \; AB 1 \;;
#X msg 385 466 \; F1 200 \; F2 1100 \; F3 2150 \; B1 300 \; B2 150
\; B3 220 \; A2 0 \; A3 0 \; A4 0 \; A5 0 \; AB 1 \;;
#X msg 455 466 \; F1 400 \; F2 1100 \; F3 2150 \; B1 60 \; B2 110 \;
B3 130 \; A2 0 \; A3 0 \; A4 0 \; A5 0 \; AB 1 \;;
#X msg 140 750 \; F1 240 \; F2 1390 \; F3 2530 \; B1 70 \; B2 60 \;
B3 180 \; A2 0 \; A3 0 \; A4 0 \; A5 0.4 \; AB 0 \;;
#X msg 70 750 \; F1 320 \; F2 1390 \; F3 2530 \; B1 200 \; B2 80 \;
B3 200 \; A2 0 \; A3 0 \; A4 0 \; A5 0.4 \; AB 0 \;;
#X connect 0 0 2 0;
#X connect 1 0 12 0;
#X connect 2 0 3 0;
#X connect 3 0 4 0;
#X connect 4 0 1 0;
#X connect 4 1 1 0;
#X connect 4 2 1 0;
#X connect 4 3 1 0;
#X connect 4 4 1 0;
#X connect 4 5 1 0;
#X connect 5 0 13 0;
#X connect 6 0 5 0;
#X connect 6 1 5 0;
#X connect 6 2 5 0;
#X connect 6 3 5 0;
#X connect 6 4 5 0;
#X connect 6 5 5 0;
#X connect 6 6 5 0;
#X connect 6 7 5 0;
#X connect 6 8 5 0;
#X connect 6 9 5 0;
#X connect 6 10 5 0;
#X connect 6 11 5 0;
#X connect 6 12 5 0;
#X connect 6 13 5 0;
#X connect 6 14 5 0;
#X connect 7 0 30 0;
#X connect 7 0 36 0;
#X connect 7 1 31 0;
#X connect 7 1 36 0;
#X connect 7 2 32 0;
#X connect 7 2 36 0;
#X connect 7 3 62 0;
#X connect 7 3 36 0;
#X connect 7 4 33 0;
#X connect 7 4 36 0;
#X connect 7 5 34 0;
#X connect 7 5 36 0;
#X connect 8 0 9 0;
#X connect 9 0 10 0;
#X connect 10 0 6 0;
#X connect 11 0 29 0;
#X connect 11 0 53 0;
#X connect 12 0 7 0;
#X connect 13 0 44 0;
#X connect 13 0 43 0;
#X connect 13 0 46 0;
#X connect 13 0 48 0;
#X connect 14 0 15 0;
#X connect 15 0 35 0;
#X connect 15 0 40 0;
#X connect 15 0 39 0;
#X connect 15 0 45 0;
#X connect 15 0 47 0;
#X connect 15 0 55 0;
#X connect 29 0 13 1;
#X connect 35 0 16 0;
#X connect 37 0 38 0;
#X connect 39 0 12 1;
#X connect 39 0 50 0;
#X connect 40 0 12 1;
#X connect 40 0 49 0;
#X connect 41 0 40 0;
#X connect 42 0 40 0;
#X connect 43 0 63 0;
#X connect 43 0 58 0;
#X connect 43 1 64 0;
#X connect 43 1 58 0;
#X connect 43 2 65 0;
#X connect 43 2 59 0;
#X connect 43 3 66 0;
#X connect 43 3 59 0;
#X connect 43 4 67 0;
#X connect 43 4 59 0;
#X connect 43 5 68 0;
#X connect 43 5 58 0;
#X connect 44 0 18 0;
#X connect 44 0 41 0;
#X connect 44 1 17 0;
#X connect 44 1 61 0;
#X connect 44 2 19 0;
#X connect 44 2 61 0;
#X connect 44 3 42 0;
#X connect 44 4 54 0;
#X connect 44 4 56 0;
#X connect 45 0 12 1;
#X connect 45 0 51 0;
#X connect 46 0 70 0;
#X connect 46 0 57 0;
#X connect 46 1 69 0;
#X connect 46 1 57 0;
#X connect 47 0 12 1;
#X connect 47 0 52 0;
#X connect 48 0 26 0;
#X connect 48 0 60 0;
#X connect 48 1 27 0;
#X connect 48 1 60 0;
#X connect 55 0 12 1;
#X connect 56 0 55 0;
#X connect 57 0 45 0;
#X connect 58 0 39 0;
#X connect 59 0 39 0;
#X connect 60 0 47 0;
#X connect 61 0 40 0;
