#N canvas 283 139 450 447 10;
#X obj 27 65 sel 36 37 38 39 40 41 42 43;
#X obj 27 86 tgl 15 0 empty empty empty 17 7 0 10 -262144 -1 -1 0 1
;
#X obj 47 86 tgl 15 0 empty empty empty 17 7 0 10 -262144 -1 -1 0 1
;
#X obj 67 86 tgl 15 0 empty empty empty 17 7 0 10 -262144 -1 -1 0 1
;
#X obj 87 86 tgl 15 0 empty empty empty 17 7 0 10 -262144 -1 -1 0 1
;
#X obj 227 86 tgl 15 0 empty empty empty 17 7 0 10 -262144 -1 -1 0
1;
#X obj 247 86 tgl 15 0 empty empty empty 17 7 0 10 -262144 -1 -1 0
1;
#X obj 267 86 tgl 15 0 empty empty empty 17 7 0 10 -262144 -1 -1 0
1;
#X msg 290 65 0;
#X obj 267 127 t b f;
#X obj 307 127 t b f;
#X obj 227 106 * 4;
#X obj 267 106 * 2;
#X obj 267 148 +;
#X obj 307 148 +;
#X obj 227 169 sel 0 1 2 3 4 5 6 7;
#X msg 227 190 symbol Space;
#X msg 227 211 symbol a;
#X msg 287 231 symbol e;
#X msg 227 231 symbol u;
#X msg 287 211 symbol i;
#X msg 227 251 symbol o;
#X msg 287 251 symbol ai;
#X obj 227 272 symbol;
#X symbolatom 227 293 10 0 0 0 - - -;
#X msg 260 65 0;
#X obj 107 127 t b f;
#X obj 147 127 t b f;
#X obj 107 106 * 2;
#X obj 107 148 +;
#X obj 147 148 +;
#X obj 27 169 sel 0 1 2 3 4 5 6 7;
#X msg 27 190 symbol Space;
#X obj 27 375 symbol;
#X symbolatom 27 396 10 0 0 0 - - -;
#X obj 67 127 t b f;
#X obj 67 148 +;
#X obj 27 106 * 8;
#X obj 67 106 * 4;
#X msg 27 211 symbol k;
#X msg 87 211 symbol s;
#X msg 27 231 symbol t;
#X msg 87 231 symbol r;
#X msg 27 251 symbol m;
#X msg 87 251 symbol w;
#X msg 117 190 symbol y;
#X obj 199 65 t b b b;
#X obj 27 272 sel 0 1 2 3 4 5 6 7;
#X obj 187 148 - 8;
#X msg 27 293 symbol n;
#X msg 27 314 symbol g;
#X msg 87 314 symbol z;
#X msg 27 334 symbol d;
#X msg 27 354 symbol h;
#X msg 87 334 symbol b;
#X msg 87 354 symbol p;
#X obj 27 416 outlet;
#X obj 227 313 outlet;
#X obj 27 44 inlet;
#X connect 0 0 1 0;
#X connect 0 1 2 0;
#X connect 0 2 3 0;
#X connect 0 3 4 0;
#X connect 0 4 5 0;
#X connect 0 5 6 0;
#X connect 0 6 7 0;
#X connect 0 7 46 0;
#X connect 1 0 37 0;
#X connect 2 0 38 0;
#X connect 3 0 28 0;
#X connect 4 0 27 0;
#X connect 5 0 11 0;
#X connect 6 0 12 0;
#X connect 7 0 10 0;
#X connect 8 0 7 0;
#X connect 8 0 6 0;
#X connect 8 0 5 0;
#X connect 9 0 13 0;
#X connect 9 1 13 1;
#X connect 10 0 14 0;
#X connect 10 1 14 1;
#X connect 11 0 13 0;
#X connect 12 0 9 0;
#X connect 13 0 14 0;
#X connect 14 0 15 0;
#X connect 15 0 16 0;
#X connect 15 1 19 0;
#X connect 15 2 20 0;
#X connect 15 3 21 0;
#X connect 15 4 17 0;
#X connect 15 5 22 0;
#X connect 15 6 18 0;
#X connect 15 7 16 0;
#X connect 15 7 8 0;
#X connect 16 0 23 1;
#X connect 17 0 23 1;
#X connect 18 0 23 1;
#X connect 19 0 23 1;
#X connect 20 0 23 1;
#X connect 21 0 23 1;
#X connect 22 0 23 1;
#X connect 23 0 24 0;
#X connect 24 0 57 0;
#X connect 25 0 4 0;
#X connect 25 0 3 0;
#X connect 25 0 2 0;
#X connect 25 0 1 0;
#X connect 26 0 29 0;
#X connect 26 1 29 1;
#X connect 27 0 30 0;
#X connect 27 1 30 1;
#X connect 28 0 26 0;
#X connect 29 0 30 0;
#X connect 30 0 31 0;
#X connect 30 0 48 0;
#X connect 31 0 32 0;
#X connect 31 1 39 0;
#X connect 31 2 40 0;
#X connect 31 3 42 0;
#X connect 31 4 41 0;
#X connect 31 5 44 0;
#X connect 31 6 43 0;
#X connect 31 7 45 0;
#X connect 32 0 33 1;
#X connect 33 0 34 0;
#X connect 34 0 56 0;
#X connect 35 0 36 0;
#X connect 35 1 36 1;
#X connect 36 0 29 0;
#X connect 37 0 36 0;
#X connect 38 0 35 0;
#X connect 39 0 33 1;
#X connect 40 0 33 1;
#X connect 41 0 33 1;
#X connect 42 0 33 1;
#X connect 43 0 33 1;
#X connect 44 0 33 1;
#X connect 45 0 33 1;
#X connect 46 0 8 0;
#X connect 46 0 25 0;
#X connect 46 1 33 0;
#X connect 46 2 23 0;
#X connect 47 0 49 0;
#X connect 47 1 50 0;
#X connect 47 2 51 0;
#X connect 47 3 54 0;
#X connect 47 4 52 0;
#X connect 47 5 55 0;
#X connect 47 6 53 0;
#X connect 47 7 25 0;
#X connect 48 0 47 0;
#X connect 49 0 33 1;
#X connect 50 0 33 1;
#X connect 51 0 33 1;
#X connect 52 0 33 1;
#X connect 53 0 33 1;
#X connect 54 0 33 1;
#X connect 55 0 33 1;
#X connect 58 0 0 0;
