#N canvas 357 129 589 716 10;
#X obj 56 38 inlet;
#X obj 57 83 unpack f f;
#X obj 300 319 f;
#X obj 360 298 + 1;
#X obj 330 298 - 1;
#X obj 165 232 sel 0;
#X obj 301 174 t b f;
#X msg 268 75 0;
#X obj 281 45 loadbang;
#X obj 360 277 b;
#X obj 35 651 outlet~;
#X obj 300 553 outlet~;
#X obj 435 48 inlet;
#X obj 300 532 vline~;
#X obj 273 399 == 0;
#X obj 273 420 posedge;
#X msg 273 443 0 0;
#X obj 410 466 pack f f;
#X obj 350 403 posedge;
#X obj 350 382 != 0;
#X obj 350 466 pack;
#X obj 350 445 swap;
#X msg 350 424 0;
#X obj 35 545 f;
#X obj 35 566 /;
#X obj 35 630 vline~;
#X obj 125 609 +;
#X obj 125 630 spigot;
#X msg 158 589 0;
#X msg 178 609 1;
#X obj 215 630 spigot;
#X msg 248 588 0;
#X msg 268 609 1;
#X obj 215 609 -;
#X obj 35 609 pack f f;
#X obj 35 524 t b f;
#X obj 215 588 swap;
#X obj 56 59 t a b;
#X obj 422 168 f;
#X msg 297 75 100;
#X text 98 213 1 Discriminate note on/off;
#X text 261 261 2 update number of held notes;
#X text 263 364 3 Generate amplitude interpolation;
#X text 362 151 set interpolation duration;
#X text 106 569 4 Calculate the running sum of pitches;
#X text 29 507 5 Interpolate average pitches;
#X obj 420 677 outlet;
#X obj 419 584 != 0;
#X obj 419 605 +;
#X obj 419 626 != 0;
#X obj 115 449 t f f;
#X obj 115 470 spigot;
#X obj 35 587 spigot;
#X text 223 463 removed due to adsr;
#X connect 0 0 37 0;
#X connect 1 0 35 0;
#X connect 1 1 6 0;
#X connect 2 0 3 0;
#X connect 2 0 4 0;
#X connect 2 0 14 0;
#X connect 2 0 19 0;
#X connect 2 0 48 0;
#X connect 2 0 50 0;
#X connect 3 0 2 1;
#X connect 4 0 2 1;
#X connect 5 0 4 0;
#X connect 5 0 28 0;
#X connect 5 0 32 0;
#X connect 5 1 9 0;
#X connect 5 1 17 0;
#X connect 5 1 21 1;
#X connect 5 1 29 0;
#X connect 5 1 31 0;
#X connect 6 0 2 0;
#X connect 6 1 5 0;
#X connect 6 1 47 0;
#X connect 7 0 2 0;
#X connect 7 0 23 0;
#X connect 8 0 7 0;
#X connect 8 0 39 0;
#X connect 9 0 3 0;
#X connect 12 0 38 1;
#X connect 13 0 11 0;
#X connect 14 0 15 0;
#X connect 15 0 16 0;
#X connect 17 0 13 0;
#X connect 18 0 22 0;
#X connect 19 0 18 0;
#X connect 20 0 13 0;
#X connect 21 0 20 0;
#X connect 21 1 20 1;
#X connect 22 0 34 1;
#X connect 22 0 21 0;
#X connect 23 0 24 0;
#X connect 23 0 26 1;
#X connect 23 0 36 1;
#X connect 24 0 52 0;
#X connect 25 0 10 0;
#X connect 26 0 27 0;
#X connect 27 0 23 1;
#X connect 28 0 27 1;
#X connect 29 0 27 1;
#X connect 30 0 23 1;
#X connect 31 0 30 1;
#X connect 32 0 30 1;
#X connect 33 0 30 0;
#X connect 34 0 25 0;
#X connect 35 0 23 0;
#X connect 35 1 26 0;
#X connect 35 1 36 0;
#X connect 36 0 33 0;
#X connect 36 1 33 1;
#X connect 37 0 1 0;
#X connect 37 1 38 0;
#X connect 38 0 17 1;
#X connect 38 0 34 1;
#X connect 39 0 38 1;
#X connect 47 0 48 1;
#X connect 48 0 49 0;
#X connect 49 0 46 0;
#X connect 50 0 51 0;
#X connect 50 1 51 1;
#X connect 50 1 52 1;
#X connect 51 0 24 1;
#X connect 52 0 34 0;
