#N canvas 987 0 924 1030 10;
#X obj 100 100 cnv 15 400 200 empty empty Output_Effects 20 12 0 14
-228856 -4160 0;
#X obj 298 474 delay2~;
#X obj 106 433 pack f f;
#X obj 106 412 t b f;
#X obj 348 474 dattorroplate;
#X obj 299 390 inlet~;
#X obj 514 22 inlet;
#X obj 320 146 hsl 128 15 0 200 0 0 empty empty Reverb_Predelay -2
-8 0 10 -261234 -1 -1 3175 1;
#X floatatom 457 146 5 0 200 0 - - -;
#X msg 524 145 set \$1;
#X msg 574 146 set \$1;
#X obj 320 176 hsl 128 15 0 1 0 0 empty empty Reverb_Bandwidth -2 -8
0 10 -261234 -1 -1 6350 1;
#X floatatom 457 176 5 0 1 0 - - -;
#X msg 524 176 set \$1;
#X msg 574 176 set \$1;
#X obj 320 206 hsl 128 15 0 1 0 0 empty empty Reverb_Damping -2 -8
0 10 -261234 -1 -1 6350 1;
#X floatatom 457 206 5 0 1 0 - - -;
#X msg 524 206 set \$1;
#X msg 574 206 set \$1;
#X obj 320 236 hsl 128 15 0 1 0 0 empty empty Reverb_Gain -2 -8 0 10
-261234 -1 -1 6350 1;
#X floatatom 457 236 5 0 1 0 - - -;
#X msg 524 236 set \$1;
#X msg 574 236 set \$1;
#X obj 298 536 outlet~;
#X obj 320 266 hsl 128 15 0 1 0 0 empty empty Reverb_Level -2 -8 0
10 -261234 -1 -1 5080 1;
#X floatatom 457 266 5 0 1 0 - - -;
#X msg 524 266 set \$1;
#X msg 574 266 set \$1;
#X obj 161 149 vradio 15 1 0 3 empty empty empty 0 -8 0 10 -261234
-1 -1 0;
#X obj 369 390 inlet~;
#X text 178 148 Polysynth;
#X text 178 163 Sequencer;
#X text 178 178 Both;
#X msg 308 411 0;
#X msg 338 411 1;
#X obj 298 432 *~;
#X msg 378 411 0;
#X msg 408 411 1;
#X obj 368 432 *~;
#X obj 120 236 hsl 128 15 0 1000 0 0 empty empty Delay_Time -2 -8 0
10 -261234 -1 -1 1270 1;
#X floatatom 257 236 5 0 1000 0 - - -;
#X msg 4 236 set \$1;
#X msg 54 236 set \$1;
#X obj 120 266 hsl 128 15 0 1 0 0 empty empty Delay_Gain -2 -8 0 10
-261234 -1 -1 2540 1;
#X floatatom 257 266 5 0 1 0 - - -;
#X msg 4 266 set \$1;
#X msg 54 266 set \$1;
#X obj 259 322 sel 0 1 2;
#X obj 229 40 loadbang;
#X msg 259 61 0;
#X msg 319 61 50;
#X msg 349 61 0.5;
#X msg 379 61 0.5;
#X obj 514 64 route time gain;
#X obj 614 64 route predelay bandwidth damping gain mix;
#X obj 115 22 route polysynth sequencer both;
#X obj 514 43 route delay reverb select;
#X msg 115 43 0;
#X msg 145 43 1;
#X msg 175 43 2;
#X obj 348 495 /~ 1;
#X obj 348 516 *~;
#X text 694 32 Input splitter;
#X text 456 450 Effects;
#X text 336 39 Default setting;
#X msg 409 61 0.5;
#X msg 439 61 0.4;
#X msg 289 61 0.2;
#X msg 229 61 100;
#X connect 1 0 23 0;
#X connect 2 0 1 1;
#X connect 3 0 2 0;
#X connect 3 1 2 1;
#X connect 4 0 60 0;
#X connect 4 1 60 0;
#X connect 5 0 35 0;
#X connect 6 0 56 0;
#X connect 7 0 10 0;
#X connect 7 0 4 1;
#X connect 8 0 9 0;
#X connect 8 0 4 1;
#X connect 9 0 7 0;
#X connect 10 0 8 0;
#X connect 11 0 14 0;
#X connect 11 0 4 2;
#X connect 12 0 13 0;
#X connect 12 0 4 2;
#X connect 13 0 11 0;
#X connect 14 0 12 0;
#X connect 15 0 18 0;
#X connect 15 0 4 3;
#X connect 16 0 17 0;
#X connect 16 0 4 3;
#X connect 17 0 15 0;
#X connect 18 0 16 0;
#X connect 19 0 22 0;
#X connect 19 0 4 4;
#X connect 20 0 21 0;
#X connect 20 0 4 4;
#X connect 21 0 19 0;
#X connect 22 0 20 0;
#X connect 24 0 27 0;
#X connect 24 0 61 1;
#X connect 25 0 26 0;
#X connect 25 0 61 1;
#X connect 26 0 24 0;
#X connect 27 0 25 0;
#X connect 28 0 47 0;
#X connect 29 0 38 0;
#X connect 33 0 35 1;
#X connect 34 0 35 1;
#X connect 35 0 1 0;
#X connect 35 0 4 0;
#X connect 36 0 38 1;
#X connect 37 0 38 1;
#X connect 38 0 1 0;
#X connect 38 0 4 0;
#X connect 39 0 42 0;
#X connect 39 0 2 0;
#X connect 40 0 41 0;
#X connect 40 0 2 0;
#X connect 41 0 39 0;
#X connect 42 0 40 0;
#X connect 43 0 46 0;
#X connect 43 0 3 0;
#X connect 44 0 45 0;
#X connect 44 0 3 0;
#X connect 45 0 43 0;
#X connect 46 0 44 0;
#X connect 47 0 34 0;
#X connect 47 0 36 0;
#X connect 47 1 33 0;
#X connect 47 1 37 0;
#X connect 47 2 34 0;
#X connect 47 2 37 0;
#X connect 48 0 68 0;
#X connect 48 0 49 0;
#X connect 48 0 67 0;
#X connect 48 0 65 0;
#X connect 48 0 51 0;
#X connect 48 0 50 0;
#X connect 48 0 66 0;
#X connect 48 0 52 0;
#X connect 49 0 28 0;
#X connect 50 0 7 0;
#X connect 51 0 11 0;
#X connect 52 0 15 0;
#X connect 53 0 39 0;
#X connect 53 1 43 0;
#X connect 54 0 7 0;
#X connect 54 1 11 0;
#X connect 54 2 15 0;
#X connect 54 3 19 0;
#X connect 54 4 24 0;
#X connect 55 0 57 0;
#X connect 55 1 58 0;
#X connect 55 2 59 0;
#X connect 56 0 53 0;
#X connect 56 1 54 0;
#X connect 56 2 55 0;
#X connect 57 0 28 0;
#X connect 58 0 28 0;
#X connect 59 0 28 0;
#X connect 60 0 61 0;
#X connect 61 0 23 0;
#X connect 65 0 19 0;
#X connect 66 0 24 0;
#X connect 67 0 43 0;
#X connect 68 0 39 0;
#X coords 0 -1 1 1 400 200 1 100 100;
