#N canvas 399 295 450 300 10;
#X obj 99 17 inlet~;
#X obj 99 150 outlet~;
#X obj 99 129 vcf~;
#X obj 149 17 inlet~;
#X obj 199 17 inlet~;
#X obj 199 38 expr~ if($v1 == 0 \, 10000 \, $v1);
#X obj 149 38 /~;
#X obj 148 68 tgl 15 0 empty empty empty 17 7 0 10 -262144 -1 -1 1
1;
#X obj 148 109 snapshot~;
#X obj 284 83 loadbang;
#X msg 284 104 1;
#X obj 148 88 metro 1;
#X connect 0 0 2 0;
#X connect 2 0 1 0;
#X connect 3 0 2 1;
#X connect 3 0 6 0;
#X connect 4 0 5 0;
#X connect 5 0 6 1;
#X connect 6 0 8 0;
#X connect 7 0 11 0;
#X connect 8 0 2 2;
#X connect 9 0 10 0;
#X connect 10 0 7 0;
#X connect 11 0 8 0;
