#N canvas 474 147 450 300 10;
#X obj 262 73 line~;
#X floatatom 149 141 5 0 0 0 - #0-interp-set #0-interp;
#X floatatom 150 122 5 0 0 0 - - #0-signal;
#X obj 195 79 tgl 15 0 empty empty empty 17 7 0 10 -262144 -1 -1 1
1;
#X obj 195 120 snapshot~;
#X obj 323 27 loadbang;
#X obj 323 48 \$0;
#X obj 262 94 outlet~;
#X obj 328 4 r \$0-interp;
#X obj 217 47 pack f f;
#X obj 60 18 inlet;
#X obj 60 39 s \$0-signal;
#X obj 175 13 r \$0-signal;
#X msg 195 141 set \$1;
#X floatatom 125 16 5 0 0 0 - - -;
#X obj 300 128 loadbang;
#X msg 300 149 1;
#X obj 263 5 inlet;
#X obj 263 26 t b f;
#X obj 323 69 pack f 250;
#X msg 323 89 \; \$1-interp-set \$2 \;;
#X obj 195 99 metro 10;
#X connect 0 0 4 0;
#X connect 0 0 7 0;
#X connect 3 0 21 0;
#X connect 4 0 13 0;
#X connect 5 0 6 0;
#X connect 6 0 19 0;
#X connect 8 0 9 1;
#X connect 9 0 0 0;
#X connect 10 0 11 0;
#X connect 12 0 9 0;
#X connect 13 0 2 0;
#X connect 14 0 11 0;
#X connect 15 0 16 0;
#X connect 16 0 3 0;
#X connect 17 0 18 0;
#X connect 18 0 9 0;
#X connect 18 0 6 0;
#X connect 18 1 9 1;
#X connect 18 1 19 1;
#X connect 19 0 20 0;
#X connect 21 0 4 0;
#X coords 0 -1 1 1 85 60 1 100 100;
