#N canvas 873 97 849 574 10;
#X obj 435 125 cnv 15 250 100 empty empty empty 20 12 0 14 -262144
-66577 0;
#X obj 20 46 inlet~;
#X obj 95 214 inlet;
#X obj 29 92 rfft~;
#X obj 29 125 *~;
#X obj 60 125 *~;
#X obj 29 155 sqrt~;
#X obj 29 181 biquad~ 0 0 0 0 1;
#X text 93 93 Fourier series;
#X text 98 146 magnitude;
#X text 96 131 calculate;
#X text 21 3 This subpatch computes the spectrum of the incoming signal
with a (rectangular windowed) FFT. FFTs aren't properly introduced
until much later.;
#X text 83 61 signal to analyze;
#X text 192 166 delay two samples;
#X text 191 182 for better graphing;
#X obj 16 425 samplerate~;
#X obj 16 402 bng 18 250 50 0 empty empty empty 0 -6 0 8 -262144 -1
-1;
#X floatatom 16 472 5 0 0 0 - - -;
#X obj 16 448 / 256;
#X obj 16 378 loadbang;
#X floatatom 16 541 5 0 0 0 - - -;
#X obj 24 494 s fundamental;
#X obj 16 517 ftom;
#X text 14 319 At load time \, calculate a good choice of fundamental
frequency for showing spectra: the 16th bin in a 4096-point spectrum
\, so SR*16/4096 or SR/256.;
#X text 145 216 "bang" into this inlet to graph it;
#X floatatom 191 480 5 0 0 0 - - -;
#X obj 191 456 / 4096;
#X text 187 425 One bin is SR/4096:;
#X text 72 540 <-just out of curiosity \, here's the fundamental pitch
;
#X obj 191 502 s freq-step;
#N canvas 0 22 450 300 (subpatch) 0;
#X array \$0-spectrum 512 float 0;
#X coords 0 166 512 99 250 100 1 0 0;
#X restore 435 125 graph;
#X obj 332 109 block~ 4096 4;
#X obj 34 211 rmstodb~;
#N canvas 373 243 753 641 window 0;
#X obj 102 216 phasor~;
#X obj 102 244 cos~;
#X obj 40 262 -~;
#X obj 38 228 sig~ 1;
#X msg 47 190 0;
#X text 152 38 WINDOW TABLE;
#N canvas 0 22 450 300 (subpatch) 0;
#X array hanningspect 4096 float 0;
#X coords 0 1 4095 -1 400 300 1;
#X restore 285 291 graph;
#X obj 100 188 sig~;
#X text 185 158 sample rate / window size;
#X msg 33 154 bang;
#X obj 76 279 sig~ 0.5;
#X obj 59 310 *~;
#X obj 77 106 samplerate~;
#X obj 35 63 t b f f;
#X obj 33 338 tabwrite~ hanningspect;
#X obj 103 141 / 4096;
#X msg 184 105 \; hanningspect resize \$1;
#X obj 39 23 bng 15 250 50 0 empty empty empty 17 7 0 10 -262144 -1
-1;
#X floatatom 154 185 5 0 0 0 - - -;
#X obj 90 163 * 4;
#X msg 84 42 4096;
#X obj 83 17 loadbang;
#X connect 0 0 1 0;
#X connect 1 0 2 1;
#X connect 2 0 11 0;
#X connect 3 0 2 0;
#X connect 4 0 0 1;
#X connect 7 0 0 0;
#X connect 9 0 4 0;
#X connect 9 0 14 0;
#X connect 10 0 11 1;
#X connect 11 0 14 0;
#X connect 12 0 15 0;
#X connect 13 0 12 0;
#X connect 13 0 9 0;
#X connect 13 1 15 1;
#X connect 13 2 16 0;
#X connect 15 0 18 0;
#X connect 15 0 19 0;
#X connect 17 0 20 0;
#X connect 19 0 7 0;
#X connect 20 0 13 0;
#X connect 21 0 20 0;
#X restore 515 434 pd window;
#X obj 77 41 tabreceive~ hanningspect;
#X obj 32 69 *~;
#X obj 36 235 clip~ 100 170;
#X obj 99 275 tabwrite~ \$0-spectrum;
#X connect 1 0 35 0;
#X connect 2 0 37 0;
#X connect 3 0 4 0;
#X connect 3 0 4 1;
#X connect 3 1 5 0;
#X connect 3 1 5 1;
#X connect 4 0 6 0;
#X connect 5 0 6 0;
#X connect 6 0 7 0;
#X connect 7 0 32 0;
#X connect 15 0 18 0;
#X connect 15 0 26 0;
#X connect 16 0 15 0;
#X connect 17 0 22 0;
#X connect 17 0 21 0;
#X connect 18 0 17 0;
#X connect 19 0 16 0;
#X connect 22 0 20 0;
#X connect 25 0 29 0;
#X connect 26 0 25 0;
#X connect 32 0 36 0;
#X connect 34 0 35 1;
#X connect 35 0 3 0;
#X connect 36 0 37 0;
#X coords 0 -1 1 1 250 100 2 435 125;
