#N canvas 424 163 779 475 10;
#X obj 174 113 list store;
#X obj 174 155 list split 1;
#X obj 107 23 inlet;
#X msg 109 47 append \$1;
#X obj 174 176 list split 1;
#X obj 176 350 outlet;
#X obj 392 328 outlet;
#X msg 266 197 symbol Space;
#X obj 192 26 inlet;
#X obj 192 47 b;
#X obj 235 25 inlet;
#X obj 235 46 b;
#X obj 174 134 t a a;
#X obj 330 69 list length;
#X obj 330 90 sel 0;
#X obj 216 322 spigot;
#X msg 330 111 0;
#X msg 360 111 1;
#X obj 149 277 symbol;
#X obj 185 232 loadbang;
#X msg 185 253 symbol Space;
#X obj 73 244 bng 15 250 50 0 empty empty empty 17 7 0 10 -262144 -1
-1;
#X symbolatom 149 298 10 0 0 0 - - -;
#X obj 276 286 bng 15 250 50 0 empty empty empty 17 7 0 10 -262144
-1 -1;
#X obj 101 324 bng 15 250 50 0 empty empty empty 17 7 0 10 -262144
-1 -1;
#X connect 0 0 12 0;
#X connect 1 0 15 0;
#X connect 1 0 18 1;
#X connect 1 1 4 0;
#X connect 1 1 0 1;
#X connect 1 2 7 0;
#X connect 1 2 18 0;
#X connect 2 0 3 0;
#X connect 3 0 0 0;
#X connect 4 0 6 0;
#X connect 4 2 7 0;
#X connect 7 0 6 0;
#X connect 8 0 9 0;
#X connect 9 0 0 0;
#X connect 10 0 11 0;
#X connect 11 0 0 1;
#X connect 12 0 1 0;
#X connect 12 1 13 0;
#X connect 13 0 14 0;
#X connect 14 0 16 0;
#X connect 14 1 17 0;
#X connect 15 0 5 0;
#X connect 16 0 15 1;
#X connect 17 0 15 1;
#X connect 18 0 22 0;
#X connect 18 0 24 0;
#X connect 18 0 5 0;
#X connect 19 0 20 0;
#X connect 20 0 18 1;
#X connect 21 0 18 0;
#X connect 23 0 18 1;
